<svg width="32" height="32" viewBox="0 0 32 32" fill="none" xmlns="http://www.w3.org/2000/svg">
<rect width="32" height="32" rx="2" fill="#0000DC"/>
<path d="M16.6179 14.2176L13.1286 17.7178H19.2446C18.93 18.277 18.4798 18.7477 17.9358 19.0861C17.3918 19.4246 16.7714 19.6199 16.1322 19.6541C15.4915 19.6799 14.8556 19.534 14.2899 19.2313C13.7242 18.9286 13.2492 18.4801 12.9137 17.932L10.2856 20.5697C11.1363 21.6303 12.2637 22.4334 13.5423 22.8894C14.8209 23.3455 16.2007 23.4367 17.5279 23.1528C18.8548 22.8531 20.0737 22.1922 21.0504 21.2427C22.0272 20.2932 22.7242 19.092 23.0646 17.771H23.8155C23.425 19.4811 22.4937 21.0186 21.1605 22.1541C19.8273 23.2896 18.1638 23.9621 16.4183 24.0713C14.6683 24.1764 12.9324 23.7013 11.4781 22.7191C10.0239 21.737 8.93196 20.3023 8.37072 18.6362C7.80354 16.9701 7.79541 15.1635 8.34755 13.4923C8.8997 11.821 9.98179 10.3769 11.4287 9.38036C12.8719 8.3862 14.5964 7.88584 16.3459 7.9537C18.0953 8.02155 19.7762 8.654 21.1385 9.75698L23.5531 7.28166C19.4763 3.72969 13.4134 3.46087 9.06857 6.74263C6.96603 8.32482 5.46769 10.5822 4.82335 13.1383C4.179 15.6945 4.4276 18.395 5.52769 20.7895C6.62097 23.1898 8.49844 25.1436 10.8494 26.3278C13.2004 27.5119 15.884 27.8554 18.456 27.3012C23.768 26.1714 27.528 21.4349 27.528 15.9999C27.528 15.4077 27.475 14.8154 27.4206 14.2232L16.6179 14.2176ZM15.9787 12.2799C16.6826 12.2857 17.3707 12.491 17.9633 12.8721L20.5384 10.289C19.3551 9.32589 17.8997 8.76081 16.3783 8.67386C14.857 8.58691 13.347 8.98251 12.0623 9.80458C10.7778 10.6272 9.78198 11.8323 9.21435 13.2511C8.64672 14.6698 8.53572 16.2312 8.8969 17.7164H12.7602C12.4521 17.154 12.2949 16.521 12.3042 15.8794C12.3135 15.2378 12.4889 14.6097 12.8132 14.0566C13.1522 13.52 13.6191 13.0765 14.1718 12.7663C14.7244 12.4561 15.3454 12.289 15.9787 12.2799Z" fill="white"/>
</svg>
