<?xml version="1.0" encoding="UTF-8"?>
<svg id="Layer_1" xmlns="http://www.w3.org/2000/svg" version="1.1" viewBox="-30 0 420 504">
  <!-- Generator: Adobe Illustrator 30.2.1, SVG Export Plug-In . SVG Version: 2.1.1 Build 1)  -->
  <defs>
    <style>
      .st0 {
        fill: #000c37;
        font-size: 23.6px;
      }

      .st0, .st1, .st2, .st3, .st4, .st5, .st6 {
        isolation: isolate;
      }

      .st0, .st1, .st3 {
        font-family: KlarheitKurrent-Regular, 'Klarheit Kurrent';
      }

      .st1 {
        letter-spacing: 0em;
      }

      .st1, .st3 {
        font-size: 8px;
      }

      .st1, .st3, .st7, .st6 {
        fill: #92d6e3;
      }

      .st2 {
        font-size: 10px;
      }

      .st2, .st5 {
        fill: #fff;
        font-family: RedHatText-Regular, 'Red Hat Text';
      }

      .st8 {
        fill: #93d7e4;
      }

      .st5 {
        font-size: 12px;
      }

      .st6 {
        font-family: KlarheitKurrent-Bold, 'Klarheit Kurrent';
        font-size: 11px;
        font-weight: 700;
      }

      .st9 {
        fill: #000b37;
      }
    </style>
  </defs>
  <rect class="st9" x="-10.7" y="-12.6" width="381.5" height="426.3"/>
  <g>
    <g>
      <rect class="st8" x="-.9" y="19.8" width="3.8" height="37"/>
      <rect class="st8" x="6.7" y="19.8" width="3.9" height="37"/>
      <rect class="st8" x="14.2" y="19.8" width="4.1" height="37"/>
      <rect class="st8" x="21.8" y="19.8" width="4.3" height="37"/>
      <path class="st8" d="M215.3,56.8H30.1V19.8h185.2c3.1,0,5.6,2.5,5.6,5.6v25.8c0,3.1-2.5,5.6-5.6,5.6Z"/>
    </g>
    <g class="st4">
      <text class="st0" transform="translate(41.7 45.9)"><tspan x="0" y="0">Augmentation</tspan></text>
    </g>
  </g>
  <g id="Your_Artworks_Here">
    <g class="st4">
      <text class="st5" transform="translate(41.5 79.9)"><tspan x="0" y="0">AI-driven, data led storytelling that overlays dynamic </tspan></text>
      <text class="st5" transform="translate(41.5 94.9)"><tspan x="0" y="0">insights onto live or recorded game footage.</tspan></text>
    </g>
    <g class="st4">
      <text class="st6" transform="translate(41.5 125.5)"><tspan x="0" y="0">Player ID</tspan></text>
    </g>
    <g class="st4">
      <text class="st2" transform="translate(41.5 138.3)"><tspan x="0" y="0">Highlights player number, </tspan></text>
      <text class="st2" transform="translate(41.5 150.3)"><tspan x="0" y="0">position, or statistics</tspan></text>
    </g>
    <g class="st4">
      <text class="st6" transform="translate(41.5 176.8)"><tspan x="0" y="0">Player Tracking</tspan></text>
    </g>
    <g class="st4">
      <text class="st2" transform="translate(41.5 189.6)"><tspan x="0" y="0">Pinpoints offensive </tspan></text>
      <text class="st2" transform="translate(41.5 201.6)"><tspan x="0" y="0">players in a mini map</tspan></text>
    </g>
    <g class="st4">
      <text class="st6" transform="translate(41.5 230.2)"><tspan x="0" y="0">Shot Probability</tspan></text>
    </g>
    <g class="st4">
      <text class="st2" transform="translate(41.5 242.9)"><tspan x="0" y="0">Shows live percentage from </tspan></text>
      <text class="st2" transform="translate(41.5 254.9)"><tspan x="0" y="0">the exact spot on the court</tspan></text>
    </g>
    <g class="st4">
      <text class="st6" transform="translate(41.5 284.5)"><tspan x="0" y="0">Defender Distance</tspan></text>
    </g>
    <g class="st4">
      <text class="st2" transform="translate(41.5 297.3)"><tspan x="0" y="0">Detects how far the </tspan></text>
      <text class="st2" transform="translate(41.5 309.3)"><tspan x="0" y="0">defender is to the shooter</tspan></text>
    </g>
    <g class="st4">
      <text class="st6" transform="translate(195.4 125.5)"><tspan x="0" y="0">Shot Distance</tspan></text>
    </g>
    <g class="st4">
      <text class="st2" transform="translate(195.4 138.3)"><tspan x="0" y="0">Displays the span between the </tspan></text>
      <text class="st2" transform="translate(195.4 150.3)"><tspan x="0" y="0">basket and the shot attempt</tspan></text>
    </g>
    <g class="st4">
      <text class="st6" transform="translate(195.4 176.8)"><tspan x="0" y="0">Shot Tracer</tspan></text>
    </g>
    <g class="st4">
      <text class="st2" transform="translate(195.4 189.6)"><tspan x="0" y="0">Follows the ball’s path </tspan></text>
      <text class="st2" transform="translate(195.4 201.6)"><tspan x="0" y="0">from release to rim</tspan></text>
    </g>
    <g class="st4">
      <text class="st6" transform="translate(195.4 230.2)"><tspan x="0" y="0">3-Pointers</tspan></text>
    </g>
    <g class="st4">
      <text class="st2" transform="translate(195.4 242.9)"><tspan x="0" y="0">Builds anticipation for a </tspan></text>
      <text class="st2" transform="translate(195.4 254.9)"><tspan x="0" y="0">3-point attempt or success</tspan></text>
    </g>
    <g class="st4">
      <text class="st6" transform="translate(195.4 284.5)"><tspan x="0" y="0">Shot Chart</tspan></text>
    </g>
    <g class="st4">
      <text class="st2" transform="translate(195.4 297.3)"><tspan x="0" y="0">Up-to-date overlay of team </tspan></text>
      <text class="st2" transform="translate(195.4 309.3)"><tspan x="0" y="0">shooting performance</tspan></text>
    </g>
    <rect class="st7" x="163.6" y="362.8" width=".5" height="46.6"/>
    <rect class="st7" x="171.9" y="362.8" width=".7" height="46.6"/>
    <rect class="st7" x="180.3" y="362.8" width=".9" height="46.6"/>
    <rect class="st7" x="188.6" y="362.8" width="1.1" height="46.6"/>
    <rect class="st7" x="196.9" y="362.8" width="1.3" height="46.6"/>
    <rect class="st7" x="205.3" y="362.8" width="1.4" height="46.6"/>
    <rect class="st7" x="213.6" y="362.8" width="1.6" height="46.6"/>
    <rect class="st7" x="221.9" y="362.8" width="1.8" height="46.6"/>
    <rect class="st7" x="230.3" y="362.8" width="2" height="46.6"/>
    <rect class="st7" x="238.6" y="362.8" width="2.2" height="46.6"/>
    <rect class="st7" x="247" y="362.8" width="2.3" height="46.6"/>
    <rect class="st7" x="255.3" y="362.8" width="2.5" height="46.6"/>
    <rect class="st7" x="263.6" y="362.8" width="2.7" height="46.6"/>
    <rect class="st7" x="272" y="362.8" width="2.9" height="46.6"/>
    <rect class="st7" x="280.3" y="362.8" width="3.1" height="46.6"/>
    <rect class="st7" x="288.6" y="362.8" width="3.2" height="46.6"/>
    <rect class="st7" x="297" y="362.8" width="3.4" height="46.6"/>
    <rect class="st7" x="305.3" y="362.8" width="3.6" height="46.6"/>
    <rect class="st7" x="313.6" y="362.8" width="3.8" height="46.6"/>
    <rect class="st7" x="322" y="362.8" width="4" height="46.6"/>
    <rect class="st7" x="330.3" y="362.8" width="4.1" height="46.6"/>
    <rect class="st7" x="338.6" y="362.8" width="4.3" height="46.6"/>
    <rect class="st7" x="347" y="362.8" width="4.5" height="46.6"/>
    <rect class="st7" x="355.3" y="362.8" width="4.7" height="46.6"/>
    <g class="st4">
      <text class="st3" transform="translate(41.6 369.5)"><tspan x="0" y="0">Moment</tspan></text>
      <text class="st1" transform="translate(74.2 369.5)"><tspan x="0" y="0">s</tspan></text>
      <text class="st3" transform="translate(77.9 369.5)"><tspan x="0" y="0" xml:space="preserve"> That Mat</tspan></text>
      <text class="st3" transform="translate(116.1 369.5)"><tspan x="0" y="0">t</tspan></text>
      <text class="st3" transform="translate(119.2 369.5)"><tspan x="0" y="0">er</tspan></text>
    </g>
  </g>
</svg>